<svg version="1.0" xmlns="http://www.w3.org/2000/svg"
 width="451.000000pt" height="617.000000pt" viewBox="0 0 451.000000 617.000000"
 preserveAspectRatio="xMidYMid meet">

<g transform="translate(0.000000,617.000000) scale(0.100000,-0.100000)"
fill="#ffffff" stroke="none">
<path d="M0 3085 l0 -3085 2255 0 2255 0 0 3085 0 3085 -2255 0 -2255 0 0
-3085z m2298 2989 l22 -15 0 -1607 0 -1607 -163 -122 c-89 -67 -216 -158 -282
-203 l-120 -81 -3 1428 c-2 1414 -2 1428 19 1502 11 42 31 97 45 124 32 64
389 563 417 582 27 19 37 19 65 -1z m545 -522 c179 -156 235 -223 262 -315 12
-42 15 -124 15 -469 0 -230 2 -418 5 -418 2 0 29 15 58 34 130 83 304 160 465
205 145 41 215 51 361 51 182 0 303 -38 377 -118 100 -108 82 -317 -48 -577
-87 -172 -261 -420 -453 -645 -125 -146 -506 -526 -653 -650 l-112 -95 0 -278
c0 -302 -6 -347 -57 -456 -24 -49 -358 -526 -406 -578 -23 -25 -80 -32 -94
-10 -4 6 -10 206 -13 443 l-5 431 -112 -79 -113 -80 0 -516 c0 -570 0 -567
-64 -697 -34 -68 -381 -557 -414 -582 -23 -19 -49 -16 -72 7 -20 20 -20 33
-20 730 l0 710 -112 -60 -113 -59 -5 -506 c-5 -492 -6 -507 -25 -521 -28 -21
-57 -26 -82 -17 -39 14 -352 295 -388 347 -59 88 -75 155 -75 314 l0 139 -109
-33 c-190 -58 -261 -69 -431 -69 -150 0 -157 1 -218 29 -118 55 -159 128 -149
271 22 312 390 913 854 1395 l52 55 3 670 3 670 28 78 c15 43 46 106 68 140
105 157 364 510 386 524 30 20 69 5 83 -33 6 -16 10 -503 10 -1332 l0 -1307
-158 -87 c-141 -78 -401 -208 -416 -208 -3 0 -6 150 -6 333 l0 332 -80 -85
c-281 -299 -490 -641 -490 -803 0 -159 249 -169 618 -25 153 59 500 237 687
352 905 558 1767 1355 1968 1820 25 58 31 85 31 149 1 78 1 79 -35 112 -86 78
-268 66 -461 -31 l-68 -34 0 -269 0 -268 -124 -129 c-110 -116 -380 -369 -427
-402 -19 -13 -19 20 -19 1293 l0 1306 25 24 c17 18 35 25 62 25 35 0 53 -14
206 -148z"/>
</g>
</svg>
